<svg xmlns="http://www.w3.org/2000/svg" viewBox="0 0 184.27 184.27"><defs><style>.cls-1{fill:#439555;}.cls-2{fill:#fff;}</style></defs><g id="Capa_2" data-name="Capa 2"><g id="Capa_1-2" data-name="Capa 1"><circle class="cls-1" cx="92.14" cy="92.14" r="92.14"/><path class="cls-2" d="M38.16,84.88,78.86,44.2c.36-.36.72-1.09,1.18-.9s.26,1,.26,1.56q0,10.38,0,20.76c0,1,.28,1.4,1.32,1.56A81.31,81.31,0,0,1,106,74.89a69.49,69.49,0,0,1,28,26.07,96.5,96.5,0,0,1,12,31.21c0,.17,0,.33.08.61-.67-.15-.85-.69-1.13-1.07a72.7,72.7,0,0,0-13.12-13.63,67.49,67.49,0,0,0-24-12.06,94.43,94.43,0,0,0-20.12-3.21c-2-.11-3.93-.15-5.89-.18-1.5,0-1.51,0-1.51,1.53v21.08c0,.32,0,.63,0,1s0,.54-.22.66-.43-.16-.6-.31-.45-.44-.68-.67L39.38,86.45c-.39-.4-.81-.77-1.22-1.15Z"/></g></g></svg>