<svg xmlns="http://www.w3.org/2000/svg" viewBox="0 0 146.41 146.41"><defs><style>.cls-1{fill:#c1272d;}.cls-2,.cls-4{fill:#fff;}.cls-3{fill:#8f1d21;}.cls-4{font-size:41.4px;font-family:ACMESecretAgent, "A.C.M.E. Secret Agent";}</style></defs><g id="Capa_2" data-name="Capa 2"><g id="Capa_1-2" data-name="Capa 1"><rect class="cls-1" width="146.41" height="146.41" rx="9.07"/><path class="cls-2" d="M96.14,23.49h1.5A3.39,3.39,0,0,1,100,27.26c-.08,1.12,0,2.25,0,3.36,0,.71.17.9.88.89,2.84,0,5.68-.1,8.51,0a10.67,10.67,0,0,1,9.52,6.17,33.75,33.75,0,0,1,1.1,3.21v69.28c-.25.07-.18.29-.23.46-1.57,5.69-5.55,8.71-11.49,8.71q-36.36,0-72.73,0a11,11,0,0,1-11.42-11.43V42.87A11,11,0,0,1,35.41,31.49c2.63,0,5.25,0,7.87,0,.62,0,.8-.19.77-.8,0-1.05.07-2.12,0-3.18a3.7,3.7,0,0,1,2.13-4h1.68a3.71,3.71,0,0,1,2.22,4.06c-.08,1,0,2.06,0,3.09,0,.72.2.87.89.87,6.33,0,12.66,0,19,0,7.7,0,15.4,0,23.11,0,.79,0,1-.22,1-1-.07-1,0-2,0-3A3.65,3.65,0,0,1,96.14,23.49ZM72,61.45q-20.51,0-41,0c-.74,0-1,.13-1,.94q0,22.74,0,45.49c0,3.47,2,5.5,5.52,5.5h72.81c3.53,0,5.55-2,5.55-5.57q0-22.65,0-45.3c0-.84-.2-1.06-1-1.06Q92.44,61.48,72,61.45Zm-.11-6H113c.68,0,1-.1,1-.89,0-4,0-8,0-12.08a4.91,4.91,0,0,0-5-5c-2.74,0-5.49,0-8.24,0-.6,0-.81.17-.8.79,0,2,0,4,0,6a3,3,0,0,1-.61,2,2.92,2.92,0,0,1-3.25,1.05,3,3,0,0,1-2.13-3q0-3,0-6c0-.62-.12-.87-.81-.87q-21.15,0-42.31,0c-.69,0-.82.25-.81.87,0,1.93,0,3.87,0,5.8a3,3,0,0,1-3,3.31,3,3,0,0,1-2.94-3.29c0-2,0-3.93,0-5.9,0-.62-.19-.79-.8-.79-2.65,0-5.31,0-8,0a5,5,0,0,0-5.25,5.29c0,3.81,0,7.61,0,11.42,0,1.26,0,1.26,1.22,1.26Z"/><path class="cls-3" d="M71.89,55.46H31.26c-1.22,0-1.22,0-1.22-1.26,0-3.81,0-7.61,0-11.42a5,5,0,0,1,5.25-5.29c2.65,0,5.31,0,8,0,.61,0,.81.17.8.79,0,2,0,3.93,0,5.9A3,3,0,0,0,47,47.45a3,3,0,0,0,3-3.31c0-1.93,0-3.87,0-5.8,0-.62.12-.87.81-.87q21.15,0,42.31,0c.69,0,.82.25.81.87q0,3,0,6a3,3,0,0,0,2.13,3,2.92,2.92,0,0,0,3.25-1.05,3,3,0,0,0,.61-2c0-2,0-4,0-6,0-.62.2-.79.8-.79,2.75,0,5.5,0,8.24,0a4.91,4.91,0,0,1,5,5c0,4,0,8,0,12.08,0,.79-.28.9-1,.89Z"/><text class="cls-4" transform="translate(39.41 103.83)">24</text></g></g></svg>